HIERARCHY
ROOT Hips
{
	OFFSET -0.001795 -0.223333 0.028219
	CHANNELS 6 Xposition Yposition Zposition Zrotation Yrotation Xrotation 
	JOINT LeftUpLeg
	{
		OFFSET 0.069520 -0.091406 -0.006815
		CHANNELS 3 Zrotation Yrotation Xrotation
		JOINT LeftLeg
		{
			OFFSET 0.034277 -0.375199 -0.004496
			CHANNELS 3 Zrotation Yrotation Xrotation
			JOINT LeftFoot
			{
				OFFSET -0.013596 -0.397961 -0.043693
				CHANNELS 3 Zrotation Yrotation Xrotation
				JOINT LeftToe
				{
					OFFSET 0.026358 -0.055791 0.119288
					CHANNELS 3 Zrotation Yrotation Xrotation
					End Site
					{
						OFFSET 0.000000 0.000000 0.000000
					}
				}
			}
		}
	}
	JOINT RightUpLeg
	{
		OFFSET -0.067670 -0.090522 -0.004320
		CHANNELS 3 Zrotation Yrotation Xrotation
		JOINT RightLeg
		{
			OFFSET -0.038290 -0.382569 -0.008850
			CHANNELS 3 Zrotation Yrotation Xrotation
			JOINT RightFoot
			{
				OFFSET 0.015774 -0.398415 -0.042312
				CHANNELS 3 Zrotation Yrotation Xrotation
				JOINT RightToe
				{
					OFFSET -0.025372 -0.048144 0.123348
					CHANNELS 3 Zrotation Yrotation Xrotation
					End Site
					{
						OFFSET 0.000000 0.000000 0.000000
					}
				}
			}
		}
	}
	JOINT Spine
	{
		OFFSET -0.002533 0.108963 -0.026696
		CHANNELS 3 Zrotation Yrotation Xrotation
		JOINT Spine1
		{
			OFFSET 0.005487 0.135180 0.001092
			CHANNELS 3 Zrotation Yrotation Xrotation
			JOINT Spine2
			{
				OFFSET 0.001457 0.052922 0.025425
				CHANNELS 3 Zrotation Yrotation Xrotation
				JOINT Neck
				{
					OFFSET -0.002778 0.213870 -0.042857
					CHANNELS 3 Zrotation Yrotation Xrotation
					JOINT Head
					{
						OFFSET 0.005152 0.064970 0.051349
						CHANNELS 3 Zrotation Yrotation Xrotation
						End Site
						{
							OFFSET 0.000000 0.000000 0.000000
						}
					}
				}
				JOINT LeftShoulder
				{
					OFFSET 0.078845 0.121749 -0.034090
					CHANNELS 3 Zrotation Yrotation Xrotation
					JOINT LeftArm
					{
						OFFSET 0.090977 0.030469 -0.008868
						CHANNELS 3 Zrotation Yrotation Xrotation
						JOINT LeftForeArm
						{
							OFFSET 0.259612 -0.012772 -0.027456
							CHANNELS 3 Zrotation Yrotation Xrotation
							JOINT LeftHand
							{
								OFFSET 0.249234 0.008986 -0.001171
								CHANNELS 3 Zrotation Yrotation Xrotation
								End Site
								{
									OFFSET 0.000000 0.000000 0.000000
								}
							}
						}
					}
				}
				JOINT RightShoulder
				{
					OFFSET -0.081759 0.118833 -0.038615
					CHANNELS 3 Zrotation Yrotation Xrotation
					JOINT RightArm
					{
						OFFSET -0.096012 0.032551 -0.009143
						CHANNELS 3 Zrotation Yrotation Xrotation
						JOINT RightForeArm
						{
							OFFSET -0.253742 -0.013329 -0.021401
							CHANNELS 3 Zrotation Yrotation Xrotation
							JOINT RightHand
							{
								OFFSET -0.255298 0.007772 -0.005559
								CHANNELS 3 Zrotation Yrotation Xrotation
								End Site
								{
									OFFSET 0.000000 0.000000 0.000000
								}
							}
						}
					}
				}
			}
		}
	}
}
MOTION
Frames: 10
Frame Time: 0.050000
0.000000 0.957130 0.000000 -4.607582 4.055856 0.034501 -0.862098 1.288765 14.455749 4.060805 -1.455644 13.065664 -1.511097 6.638973 23.943112 0.000000 0.000000 0.000000 5.475265 3.221934 -23.494150 3.568927 -0.602672 27.845310 -3.692853 -13.946296 33.711677 0.000000 0.000000 0.000000 3.446295 -0.755927 9.656871 6.314309 -4.029582 7.927606 0.001684 -7.790312 -12.698571 1.244767 -0.970144 5.923654 0.000000 0.000000 0.000000 -18.291297 -3.070899 0.605354 -21.648189 8.621546 -3.194120 -133.935633 -42.690332 93.765572 0.000000 0.000000 0.000000 20.026060 -5.677813 -6.815793 20.185297 -23.731861 -4.115505 105.040166 41.731970 51.913196 0.000000 0.000000 0.000000 
-0.001816 0.969668 0.004759 -4.698743 2.648716 1.251467 -0.065719 0.895819 10.435459 1.710229 -1.350354 20.160031 -2.244632 5.454086 24.046398 0.000000 0.000000 0.000000 7.054481 3.484607 -22.969667 2.263203 0.023053 23.916637 -6.101199 -17.781971 48.752815 0.000000 0.000000 0.000000 5.115490 -0.708660 7.235669 2.964251 -2.426561 12.709104 3.463522 -7.885287 -15.928056 -2.121494 1.880799 6.082985 0.000000 0.000000 0.000000 -15.467924 -0.685714 -0.218039 -25.407957 8.482658 -3.699687 -126.902148 -41.009817 82.655769 0.000000 0.000000 0.000000 14.681034 -6.587841 -6.181841 27.901774 -22.319164 -5.822367 103.243790 42.891577 49.831449 0.000000 0.000000 0.000000 
-0.004127 0.961968 0.007050 -3.912029 0.494473 0.130556 0.655620 0.553284 6.710955 -0.319648 -1.119347 32.120333 0.160706 7.699713 21.861824 0.000000 0.000000 0.000000 7.803042 3.353436 -20.776776 0.159597 0.847401 23.081072 -11.058559 -21.943124 66.238349 0.000000 0.000000 0.000000 3.493083 -0.682557 8.920351 4.849718 -3.155222 9.501104 1.216304 -5.821516 -11.448840 -0.927046 0.716030 6.025158 0.000000 0.000000 0.000000 -17.788846 -0.629311 -0.641211 -25.123824 12.930616 -4.509209 -121.085691 -40.853240 73.710919 0.000000 0.000000 0.000000 17.985703 -5.273925 -6.030480 30.918927 -19.994972 -6.212642 100.088584 51.341860 58.470293 0.000000 0.000000 0.000000 
-0.006681 0.935209 0.002520 -3.728403 -1.917325 -2.136161 1.494584 0.031682 0.478093 -3.336509 0.605621 53.226227 3.895309 11.893373 18.064234 0.000000 0.000000 0.000000 8.624456 3.038643 -17.769655 0.243120 1.296526 29.299621 -11.603717 -23.024439 54.123788 0.000000 0.000000 0.000000 2.494328 -0.660282 10.508309 3.889416 -2.752656 13.457796 1.961386 -1.701822 -12.707353 -3.162564 2.318716 1.363237 0.000000 0.000000 0.000000 -17.596667 3.086640 -3.212763 -25.195062 13.956738 -4.530371 -113.717096 -39.778602 62.755333 0.000000 0.000000 0.000000 19.343703 -2.648941 -4.449511 34.076426 -10.937269 -4.619742 102.786493 60.015361 72.012187 0.000000 0.000000 0.000000 
-0.007909 0.912103 -0.007165 -3.410519 -2.499956 -5.096702 2.772712 -0.451102 -6.949099 -4.961132 2.459277 70.628756 6.381230 14.335495 7.762454 0.000000 0.000000 0.000000 8.591210 2.127676 -12.541263 0.559106 1.388207 32.188496 -6.231119 -17.200702 17.896433 0.000000 0.000000 0.000000 1.264281 -0.694844 13.977477 2.928502 -2.126689 13.452775 2.985940 2.414784 -10.791849 -2.025454 1.557886 -1.963187 0.000000 0.000000 0.000000 -19.133296 4.548652 -4.872505 -22.941818 15.537147 -4.298530 -104.566494 -40.775932 54.110324 0.000000 0.000000 0.000000 20.682174 1.607457 -1.484510 34.816575 -2.470114 -2.867576 109.401118 70.328391 92.185672 0.000000 0.000000 0.000000 
-0.006107 0.915106 -0.014991 -1.601017 -3.059338 -5.014299 2.574388 -1.197976 -18.566631 -6.055932 4.433646 78.948681 7.333786 15.725941 5.636718 0.000000 0.000000 0.000000 6.091710 0.887472 -6.353205 0.431964 1.408256 29.982188 -3.525923 -5.715256 -7.685965 0.000000 0.000000 0.000000 -1.305452 -0.408742 15.246709 1.276763 -0.971432 12.304444 3.129543 8.093985 -10.593518 -3.291850 2.289263 -1.116144 0.000000 0.000000 0.000000 -16.879175 5.657444 -5.924220 -21.944721 17.254862 -4.239205 -101.347364 -39.228687 47.565900 0.000000 0.000000 0.000000 20.339339 0.956725 -0.441988 36.873023 4.681326 -1.498155 113.069827 74.529890 103.280475 0.000000 0.000000 0.000000 
-0.001721 0.941537 -0.018635 -0.322503 -4.367169 -3.170614 1.500691 -1.946321 -28.428593 -4.438920 3.241595 72.105243 6.443310 14.240372 6.989132 0.000000 0.000000 0.000000 3.852523 -0.345416 2.014038 -1.663633 1.681526 22.148377 -2.572071 4.434411 -16.306918 0.000000 0.000000 0.000000 -2.604876 -0.177284 13.267100 -1.137902 0.598173 8.026438 3.996244 13.334240 -6.723374 -1.517217 0.697419 1.549030 0.000000 0.000000 0.000000 -16.225287 7.925320 -7.424203 -18.509960 20.680350 -4.005087 -106.890872 -37.392054 48.356269 0.000000 0.000000 0.000000 18.109256 2.361887 1.571900 39.196521 7.767569 -1.249349 122.365229 78.142444 120.160659 0.000000 0.000000 0.000000 
0.003478 0.978790 -0.018213 1.246258 -3.306378 -1.154898 -2.840714 -3.379766 -31.082190 -1.859629 0.164901 51.730965 4.995985 12.421561 12.053948 0.000000 0.000000 0.000000 1.898994 -1.067565 9.210134 -2.871652 1.467539 16.018649 -1.344214 5.176537 -12.553242 0.000000 0.000000 0.000000 -3.901502 -0.012983 9.944502 -2.146558 1.165649 9.617426 2.195313 16.900884 -10.928285 0.250479 -1.634444 4.809377 0.000000 0.000000 0.000000 -12.159279 7.662056 -6.520743 -16.126288 23.774154 -3.818323 -110.931312 -33.962441 45.490931 0.000000 0.000000 0.000000 15.726600 2.181467 2.178545 42.432876 6.545990 -1.397732 118.730991 76.861292 117.146872 0.000000 0.000000 0.000000 
0.007338 1.011159 -0.014411 1.471657 -3.857778 1.232724 -4.782649 -3.529805 -28.565604 0.711249 -0.811081 24.246167 1.182325 7.970381 20.064253 0.000000 0.000000 0.000000 -0.384367 -1.093612 12.539153 -1.697619 1.247315 16.842168 0.471362 6.481732 -7.180882 0.000000 0.000000 0.000000 -4.126681 0.041206 5.806153 -3.556960 2.020265 9.775231 1.768557 19.168602 -11.201056 1.699003 -3.036642 5.222378 0.000000 0.000000 0.000000 -8.913676 8.048410 -5.618069 -17.067162 26.734637 -4.685756 -114.173500 -34.314028 47.651603 0.000000 0.000000 0.000000 15.812686 0.799572 1.848065 43.029333 4.771581 -2.001616 116.962642 71.427430 110.912821 0.000000 0.000000 0.000000 
0.008915 1.020048 -0.008602 0.755693 -1.921177 2.422975 -6.041207 -3.389815 -24.517624 2.350955 -0.715278 8.555032 -3.822389 2.564859 24.183357 0.000000 0.000000 0.000000 0.097548 -1.192470 12.216510 0.425607 1.151075 27.353816 1.297388 2.299382 1.655567 0.000000 0.000000 0.000000 -2.773809 0.001387 2.757978 -3.621799 2.021112 12.818540 -0.105103 17.890401 -14.171367 2.887078 -4.712464 7.512093 0.000000 0.000000 0.000000 -8.165954 9.079214 -5.652366 -17.114493 28.390775 -4.987368 -118.561322 -34.812657 52.689344 0.000000 0.000000 0.000000 15.664699 0.573792 1.671345 42.956258 1.757065 -2.735763 112.156471 66.805064 100.176587 0.000000 0.000000 0.000000 
